<svg width="369" height="88" viewBox="0 0 369 88" fill="none" xmlns="http://www.w3.org/2000/svg">
<path d="M89.24 33.0749L86.6268 42.4092L71.2603 42.3822L83.6651 63.8679L77.4483 71.7685L58.9743 39.7706C57.2461 36.7773 59.4077 33.0356 62.864 33.037L63.1974 33.0372L89.24 33.0749Z" fill="#3A0CA3"/>
<path d="M1.63086 54.689L4.24403 45.3548L19.6105 45.3818L7.20574 23.896L13.4226 15.9955L31.8966 47.9934C33.6248 50.9867 31.4632 54.7284 28.0068 54.7269L27.6735 54.7268L1.63086 54.689Z" fill="#3A0CA3"/>
<path d="M32.7313 86.7861L25.9542 79.8559L33.6608 66.5616L8.85126 66.5616L5.11756 57.2274L42.0656 57.2274C45.522 57.2274 47.6815 60.9703 45.9521 63.9628L45.7853 64.2514L32.7313 86.7861Z" fill="#3A0CA3"/>
<path d="M58.2068 0.244141L64.9839 7.17433L57.2773 20.4686L82.0868 20.4686L85.8205 29.8029L48.8725 29.8029C45.4161 29.8029 43.2565 26.06 44.986 23.0674L45.1528 22.7788L58.2068 0.244141Z" fill="#3A0CA3"/>
<path d="M76.2442 76.1992L66.8539 78.6033L59.194 65.282L46.7892 86.7677L36.8387 85.3341L55.3127 53.3362C57.0409 50.3429 61.3621 50.344 63.0891 53.3381L63.2556 53.6268L76.2442 76.1992Z" fill="#3A0CA3"/>
<path d="M14.1105 10.8829L23.5008 8.47881L31.1607 21.8001L43.5655 0.31435L53.516 1.74799L35.042 33.7459C33.3138 36.7392 28.9926 36.7381 27.2657 33.744L27.0991 33.4553L14.1105 10.8829Z" fill="#3A0CA3"/>
<path d="M131.653 63.9337C119.596 63.9337 111.396 55.2989 111.396 42.9711C111.396 30.9693 120.683 23.0947 131.815 23.0947C143.437 23.0947 151.638 31.0236 151.638 43.0798C151.638 54.8644 143.003 63.9337 131.653 63.9337ZM131.544 55.5161C137.681 55.5161 142.242 50.194 142.242 43.7857C142.242 36.7258 138.169 31.5123 131.327 31.5123C124.973 31.5123 120.845 36.8887 120.845 43.4599C120.845 50.2483 124.973 55.5161 131.544 55.5161Z" fill="#211F26"/>
<path d="M190.563 62.9562H182.417L164.604 36.0741V62.9562H156.295V24.1809H168.46L182.036 45.5236V24.1809H190.563V62.9562Z" fill="#211F26"/>
<path d="M227.721 62.9562H196.658V24.1809H227.667V32.1097H206.107V39.2239H223.54V46.8269H206.107V55.0273H227.721V62.9562Z" fill="#211F26"/>
<path d="M247.378 62.9562H232.986V24.1809H247.378C259.977 24.1809 266.928 33.7932 266.928 43.6771C266.928 53.8869 259.488 62.9562 247.378 62.9562ZM242.436 54.8644H246.998C252.863 54.8644 257.479 51.2801 257.479 44.003C257.479 36.2914 253.134 32.3269 246.943 32.3269H242.436V54.8644Z" fill="#211F26"/>
<path d="M305.889 62.9562H295.353L293.29 57.8513H277.541L275.477 62.9562H265.322L283.46 24.1809H288.674L305.889 62.9562ZM290.629 50.8457L285.415 37.649L280.147 50.8457H290.629Z" fill="#211F26"/>
<path d="M321.884 62.9562H312.435V32.5985H301.03V24.1809H333.289V32.5985H321.884V62.9562Z" fill="#211F26"/>
<path d="M369 62.9562H358.464L356.401 57.8513H340.651L338.588 62.9562H328.432L346.571 24.1809H351.784L369 62.9562ZM353.739 50.8457L348.526 37.649L343.258 50.8457H353.739Z" fill="#211F26"/>
</svg>
