<svg width="156" height="33" viewBox="0 0 156 33" fill="none" xmlns="http://www.w3.org/2000/svg">
<g clip-path="url(#clip0_256_470)">
<path d="M55.5456 19.0077L54.6236 21.617H54.5468C54.3931 21.0286 54.1114 20.1333 53.6504 19.0589L48.7076 6.65188H43.8672V26.4263H47.0685V14.224C47.0685 13.4565 47.0685 12.5868 47.0429 11.5123C47.0173 10.9751 46.9661 10.5658 46.9404 10.2589H47.0173C47.1709 11.0263 47.3502 11.5891 47.4783 11.9472L53.4199 26.3751H55.6736L61.564 11.8193C61.6921 11.4868 61.8202 10.8216 61.9482 10.2589H62.025C61.9482 11.717 61.897 13.0216 61.8714 13.8147V26.3496H65.2776V6.60072H60.6165L55.5456 19.0077ZM68.5045 12.1775H71.8339V26.3496H68.5045V12.1775ZM70.1948 6.19142C69.6314 6.19142 69.1704 6.39607 68.7862 6.75421C68.4021 7.11235 68.1972 7.57281 68.1972 8.1356C68.1972 8.67281 68.4021 9.13328 68.7862 9.49142C69.1704 9.84955 69.6314 10.0286 70.1948 10.0286C70.7582 10.0286 71.2448 9.82397 71.6034 9.49142C71.9875 9.13328 72.1924 8.67281 72.1924 8.1356C72.1924 7.59839 71.9875 7.13793 71.6034 6.75421C71.2704 6.39607 70.7838 6.19142 70.1948 6.19142ZM83.6403 12.0496C83.0257 11.9216 82.3854 11.8449 81.7707 11.8449C80.2597 11.8449 78.8768 12.1775 77.7243 12.8426C76.5718 13.5077 75.6498 14.4286 75.0608 15.5798C74.4461 16.7565 74.1388 18.1123 74.1388 19.6728C74.1388 21.0286 74.4461 22.2309 75.0352 23.3309C75.6242 24.4054 76.4438 25.2751 77.545 25.8635C78.595 26.4519 79.8243 26.7589 81.2073 26.7589C82.7952 26.7589 84.1525 26.4263 85.2282 25.8123L85.2538 25.7868V22.717L85.1257 22.8193C84.6391 23.1775 84.0757 23.4844 83.5123 23.6635C82.9232 23.8682 82.3854 23.9705 81.9244 23.9705C80.5927 23.9705 79.5426 23.5868 78.7999 22.7426C78.0316 21.924 77.6475 20.7984 77.6475 19.3914C77.6475 17.9333 78.0316 16.7821 78.8255 15.9379C79.6195 15.0937 80.6695 14.6589 81.95 14.6589C83.0257 14.6589 84.1269 15.017 85.1257 15.7333L85.2538 15.8356V12.5868L85.2282 12.5612C84.7928 12.3821 84.3062 12.1775 83.6403 12.0496ZM94.6272 11.9472C93.8077 11.9472 93.0394 12.203 92.3735 12.7403C91.8101 13.2007 91.4259 13.8658 91.093 14.6589H91.0674V12.1775H87.738V26.3496H91.0674V19.11C91.0674 17.8821 91.3235 16.8589 91.8869 16.117C92.4503 15.3496 93.1674 14.9658 94.0382 14.9658C94.3455 14.9658 94.6528 15.0426 95.037 15.0937C95.3955 15.1961 95.6516 15.2984 95.8309 15.4263L95.959 15.5286V12.203L95.8821 12.1775C95.6516 12.024 95.1907 11.9472 94.6272 11.9472ZM103.693 11.8705C101.363 11.8705 99.4932 12.5612 98.1871 13.917C96.8553 15.2728 96.2151 17.1403 96.2151 19.4937C96.2151 21.6937 96.8809 23.4844 98.1615 24.7891C99.442 26.0682 101.184 26.7333 103.36 26.7333C105.64 26.7333 107.458 26.0426 108.764 24.6612C110.096 23.2798 110.736 21.4379 110.736 19.1612C110.736 16.91 110.122 15.1193 108.867 13.8147C107.663 12.51 105.896 11.8705 103.693 11.8705ZM106.357 22.7682C105.742 23.5612 104.769 23.9449 103.565 23.9449C102.362 23.9449 101.388 23.5612 100.697 22.717C100.005 21.924 99.6725 20.7728 99.6725 19.3147C99.6725 17.8054 100.031 16.6542 100.697 15.8356C101.388 15.017 102.336 14.6077 103.54 14.6077C104.718 14.6077 105.64 14.9914 106.306 15.7844C106.971 16.5775 107.33 17.7286 107.33 19.2379C107.279 20.7728 106.997 21.9751 106.357 22.7682ZM118.163 18.0612C117.113 17.6263 116.447 17.2937 116.14 17.0123C115.884 16.7565 115.756 16.3984 115.756 15.9379C115.756 15.5542 115.91 15.1705 116.294 14.9147C116.678 14.6589 117.113 14.5309 117.754 14.5309C118.317 14.5309 118.906 14.6333 119.469 14.7868C120.033 14.9403 120.545 15.1705 120.955 15.4775L121.083 15.5798V12.4589L121.006 12.4333C120.622 12.2798 120.11 12.1263 119.495 11.9984C118.88 11.8961 118.317 11.8449 117.856 11.8449C116.268 11.8449 114.962 12.2286 113.938 13.0728C112.913 13.8658 112.427 14.9403 112.427 16.1937C112.427 16.8589 112.529 17.4472 112.759 17.9333C112.99 18.4193 113.323 18.8798 113.784 19.2635C114.245 19.6216 114.911 20.031 115.833 20.4147C116.601 20.7472 117.19 21.003 117.549 21.2077C117.907 21.4123 118.138 21.6426 118.317 21.8216C118.445 22.0263 118.522 22.2821 118.522 22.6147C118.522 23.5612 117.805 24.0216 116.345 24.0216C115.782 24.0216 115.192 23.9193 114.501 23.6891C113.809 23.4589 113.169 23.1263 112.631 22.7426L112.503 22.6403V25.8891L112.58 25.9147C113.067 26.1449 113.656 26.2984 114.373 26.4775C115.09 26.6054 115.73 26.7077 116.294 26.7077C118.01 26.7077 119.418 26.324 120.417 25.4798C121.441 24.6612 121.979 23.6123 121.979 22.2565C121.979 21.31 121.723 20.4658 121.16 19.8263C120.417 19.2123 119.495 18.5728 118.163 18.0612ZM130.764 11.8705C128.433 11.8705 126.564 12.5612 125.257 13.917C123.951 15.2728 123.285 17.1403 123.285 19.4937C123.285 21.6937 123.951 23.4844 125.232 24.7891C126.512 26.0682 128.254 26.7333 130.431 26.7333C132.71 26.7333 134.528 26.0426 135.835 24.6612C137.166 23.2798 137.807 21.4379 137.807 19.1612C137.807 16.91 137.192 15.1193 135.937 13.8147C134.733 12.51 132.966 11.8705 130.764 11.8705ZM133.402 22.7682C132.787 23.5612 131.814 23.9449 130.61 23.9449C129.381 23.9449 128.433 23.5612 127.742 22.717C127.05 21.924 126.717 20.7728 126.717 19.3147C126.717 17.8054 127.076 16.6542 127.742 15.8356C128.433 15.017 129.381 14.6077 130.584 14.6077C131.737 14.6077 132.684 14.9914 133.35 15.7844C134.016 16.5775 134.375 17.7286 134.375 19.2379C134.375 20.7728 134.042 21.9751 133.402 22.7682ZM155.606 14.9147V12.1775H152.251V7.98211L152.148 8.00769L148.973 8.95421L148.896 8.97979V12.1775H143.876V10.3868C143.876 9.56816 144.081 8.92862 144.44 8.51932C144.798 8.11002 145.336 7.90537 146.002 7.90537C146.463 7.90537 146.95 8.00769 147.487 8.23793L147.615 8.31467V5.42397L147.539 5.39839C147.078 5.2449 146.463 5.14258 145.669 5.14258C144.67 5.14258 143.799 5.37281 143.005 5.75653C142.212 6.19142 141.623 6.77979 141.187 7.57281C140.752 8.34025 140.521 9.21002 140.521 10.2077V12.1775H138.191V14.8891H140.521V26.3496H143.876V14.9147H148.896V22.2054C148.896 25.1984 150.304 26.7077 153.122 26.7077C153.583 26.7077 154.069 26.631 154.53 26.5542C155.017 26.4519 155.375 26.324 155.58 26.2216L155.606 26.1961V23.4589L155.478 23.5612C155.273 23.6891 155.094 23.7914 154.786 23.8682C154.53 23.9449 154.3 23.9705 154.12 23.9705C153.455 23.9705 152.994 23.817 152.661 23.4333C152.353 23.0751 152.2 22.4868 152.2 21.617V14.9147H155.606Z" fill="#5F5576"/>
<path d="M0.944336 0H16.6436V15.6814H0.944336V0Z" fill="#5F5576"/>
<path d="M18.2832 0H33.9824V15.6814H18.2832V0Z" fill="#5F5576"/>
<path d="M0.944336 17.3184H16.6436V32.9998H0.944336V17.3184Z" fill="#5F5576"/>
<path d="M18.2832 17.3184H33.9824V32.9998H18.2832V17.3184Z" fill="#5F5576"/>
</g>
<defs>
<clipPath id="clip0_256_470">
<rect width="154.688" height="33" fill="white" transform="translate(0.944336)"/>
</clipPath>
</defs>
</svg>
