<svg width="158" height="25" viewBox="0 0 158 25" fill="none" xmlns="http://www.w3.org/2000/svg">
<path d="M12.5571 16.7107H8.28109V11.2292H11.0597C11.5858 11.2292 12.0337 11.2162 12.5597 11.1874C12.9087 11.1741 13.25 11.0807 13.5574 10.9145C13.8648 10.7483 14.1302 10.5137 14.3332 10.2286C14.5581 9.93111 14.7017 9.57989 14.7498 9.20964C14.7967 8.88567 14.8019 8.60873 14.7707 8.27953C14.716 7.69353 14.4445 7.14934 14.0097 6.75423C13.5749 6.35912 13.0083 6.14175 12.4217 6.14496H8.28109V23.9165H1.20557V0.522461H12.7681C13.229 0.522461 13.617 0.530299 14.078 0.556426C17.1483 0.721025 19.6769 2.43233 20.9764 5.2253C21.6403 6.60648 21.8944 8.15009 21.7082 9.67209C21.5512 11.2841 20.8844 12.8035 19.8054 14.0082C18.7264 15.213 17.2916 16.04 15.7108 16.3684C14.6768 16.6021 13.6196 16.717 12.5597 16.7107" fill="#5F5576"/>
<path d="M38.8302 22.6068C38.7365 21.2299 38.6844 20.0646 38.6558 18.6825C38.6193 16.8667 38.5985 15.3383 38.5855 13.5224C38.5855 12.5928 38.4647 11.667 38.2261 10.7687C38.083 10.1737 37.8165 9.61557 37.4441 9.13075C37.0717 8.64592 36.6017 8.24525 36.0646 7.95481C35.4265 7.59251 34.7359 7.33246 34.0178 7.18407C31.7355 6.66955 29.3732 6.62245 27.0724 7.0456C26.3954 7.16317 25.8303 7.32777 25.1922 7.59426C24.484 7.87495 23.8489 8.31408 23.3353 8.87821C22.8218 9.44235 22.4433 10.1166 22.2287 10.8497C22.0508 11.4059 21.9966 11.9945 22.0698 12.574C22.0803 12.6838 22.1089 12.7778 22.1584 12.8797L27.7651 13.0182C27.7479 12.6787 27.7993 12.3392 27.9162 12.0202C28 11.7738 28.1389 11.55 28.3221 11.3657C28.5054 11.1814 28.7282 11.0415 28.9735 10.9568C29.6914 10.6805 30.4834 10.6667 31.2105 10.9176C31.4514 10.9924 31.6701 11.1258 31.8473 11.3058C32.0245 11.4858 32.1546 11.707 32.2261 11.9496C32.3198 12.2631 32.273 12.5767 32.0829 12.8458C31.9265 13.0758 31.7026 13.2511 31.4422 13.3474C31.2756 13.4127 31.1297 13.4571 30.9605 13.5042C30.2229 13.7059 29.4754 13.869 28.7209 13.9927C28.0907 14.0972 27.5594 14.1939 26.9344 14.3219C26.13 14.4802 25.3359 14.6879 24.5568 14.9437C23.8377 15.1691 23.1789 15.555 22.6297 16.0724C21.8938 16.7282 21.42 17.6296 21.2964 18.6093C21.2 19.2913 21.2235 19.8843 21.3745 20.5558C21.5493 21.3922 21.9504 22.1642 22.5339 22.7868C23.1173 23.4095 23.8605 23.8589 24.6818 24.0855C26.4946 24.6423 28.4447 24.5434 30.1922 23.806C31.046 23.4727 31.7983 22.9216 32.3745 22.207L31.9787 19.3331C31.7147 19.756 31.3274 20.0871 30.8693 20.2815C30.4266 20.4774 30.023 20.5819 29.5412 20.6316C29.1375 20.6708 28.7886 20.642 28.398 20.5323C28.0947 20.4535 27.8206 20.2884 27.6089 20.0568C27.4231 19.8622 27.2966 19.6183 27.2443 19.354C27.1999 19.1525 27.2119 18.9426 27.279 18.7476C27.3461 18.5525 27.4657 18.3799 27.6245 18.2488C27.831 18.0682 28.0696 17.9281 28.3276 17.836C28.9443 17.6072 29.5698 17.4032 30.2026 17.2246C31.0073 16.9973 31.6714 16.7517 32.4344 16.399C32.5073 17.0104 32.5047 17.5329 32.4188 18.1417C32.3589 18.5884 32.2209 18.9568 31.9787 19.3331L32.3745 22.207C32.4969 22.6146 32.6089 22.9542 32.7495 23.3566C32.8276 23.5787 32.9318 23.7511 33.0881 23.9262H39.2599C39.0044 23.5325 38.8562 23.0784 38.8302 22.6094" fill="#5F5576"/>
<path d="M46.2144 8.97051C46.9874 8.28212 47.8591 7.71407 48.8003 7.28533C50.3363 6.54547 52.0942 6.41483 53.7222 6.91955C54.5981 7.16163 55.3985 7.62274 56.0485 8.25972C56.6984 8.8967 57.1766 9.68872 57.4383 10.5616C57.7077 11.3906 57.8414 12.258 57.8341 13.1299V23.9151H51.2196V14.2168C51.2196 13.8928 51.1779 13.6159 51.0841 13.3076C51.0068 13.0398 50.8698 12.7931 50.6835 12.5863C50.4971 12.3794 50.2664 12.2178 50.0086 12.1136C49.4477 11.8712 48.8176 11.8438 48.2378 12.0364C47.658 12.229 47.1687 12.6283 46.8628 13.1586C46.6004 13.5941 46.4651 14.0947 46.4722 14.6035V23.9151H40.0659V7.20433H46.0737L46.2144 8.97051Z" fill="#5F5576"/>
<path d="M76.2267 22.6068C76.133 21.2299 76.0809 20.0646 76.0523 18.6825C76.0158 16.8667 75.995 15.3383 75.9819 13.5224C75.9819 12.5928 75.8611 11.667 75.6226 10.7687C75.4795 10.1737 75.213 9.61557 74.8406 9.13075C74.4682 8.64592 73.9982 8.24525 73.4611 7.95481C72.823 7.59251 72.1324 7.33246 71.4142 7.18407C69.132 6.66955 66.7697 6.62245 64.4689 7.0456C63.7918 7.16317 63.2267 7.32777 62.5887 7.59426C61.8804 7.87495 61.2454 8.31408 60.7318 8.87821C60.2182 9.44235 59.8398 10.1166 59.6252 10.8497C59.4473 11.4059 59.393 11.9945 59.4663 12.574C59.4767 12.6838 59.5054 12.7778 59.5549 12.8797L65.1616 13.0182C65.1444 12.6787 65.1958 12.3392 65.3127 12.0202C65.3965 11.7738 65.5354 11.55 65.7186 11.3657C65.9019 11.1814 66.1246 11.0415 66.37 10.9568C67.0879 10.6805 67.8798 10.6667 68.6069 10.9176C68.8478 10.9924 69.0666 11.1258 69.2438 11.3058C69.421 11.4858 69.5511 11.707 69.6226 11.9496C69.7163 12.2631 69.6694 12.5767 69.4793 12.8458C69.323 13.0758 69.0991 13.2511 68.8387 13.3474C68.672 13.4127 68.5262 13.4571 68.3569 13.5042C67.6194 13.7059 66.8718 13.869 66.1174 13.9927C65.4872 14.0972 64.9559 14.1939 64.3309 14.3219C63.5264 14.4802 62.7324 14.6879 61.9533 14.9437C61.2342 15.1691 60.5754 15.555 60.0262 16.0724C59.2903 16.7282 58.8165 17.6296 58.6929 18.6093C58.5965 19.2913 58.62 19.8843 58.771 20.5558C58.9458 21.3922 59.3469 22.1642 59.9304 22.7868C60.5138 23.4095 61.257 23.8589 62.0783 24.0855C63.8911 24.6423 65.8411 24.5434 67.5887 23.806C68.4425 23.4727 69.1948 22.9216 69.771 22.207L69.3752 19.3331C69.1112 19.756 68.7239 20.0871 68.2658 20.2815C67.8231 20.4774 67.4194 20.5819 66.9377 20.6316C66.534 20.6708 66.1851 20.642 65.7944 20.5323C65.4912 20.4535 65.2171 20.2884 65.0054 20.0568C64.8196 19.8622 64.6931 19.6183 64.6408 19.354C64.5964 19.1525 64.6084 18.9426 64.6755 18.7476C64.7426 18.5525 64.8622 18.3799 65.021 18.2488C65.2275 18.0682 65.466 17.9281 65.7241 17.836C66.3407 17.6072 66.9662 17.4032 67.5991 17.2246C68.4038 16.9973 69.0679 16.7517 69.8309 16.399C69.9038 17.0104 69.9012 17.5329 69.8153 18.1417C69.7554 18.5884 69.6174 18.9568 69.3752 19.3331L69.771 22.207C69.8934 22.6146 70.0054 22.9542 70.146 23.3566C70.2241 23.5787 70.3283 23.7511 70.4845 23.9262H76.6564C76.4009 23.5325 76.2527 23.0784 76.2267 22.6094" fill="#5F5576"/>
<path d="M85.4712 17.7734C85.9477 17.8544 86.3462 17.9563 86.8045 18.1078C86.9883 18.1655 87.153 18.272 87.2814 18.4159C87.4098 18.5599 87.4969 18.736 87.5337 18.9256C87.581 19.13 87.5749 19.3432 87.516 19.5446C87.4572 19.746 87.3476 19.9287 87.1977 20.0752C86.9022 20.3827 86.5126 20.5823 86.091 20.6421C85.5024 20.7362 84.9816 20.6892 84.4243 20.4854C84.1647 20.3951 83.9237 20.2578 83.7134 20.0804C83.4369 19.8524 83.2346 19.5467 83.1326 19.2025C83.0419 18.9146 82.9997 18.6135 83.0076 18.3116H76.9087V18.6669C76.9087 19.2417 76.9972 19.7303 77.1978 20.2711C77.505 21.0811 77.9243 21.7081 78.5571 22.2986C79.3372 23.0445 80.2905 23.5833 81.3306 23.8662C83.4722 24.5044 85.7301 24.6473 87.9347 24.2842C88.9696 24.1346 89.9712 23.8076 90.8957 23.3175C91.3059 23.1057 91.6904 22.8471 92.0415 22.5468C92.8412 21.8929 93.4232 21.0099 93.7098 20.0156C93.9964 19.0213 93.974 17.963 93.6457 16.9818C93.4175 16.2395 92.9818 15.5785 92.3905 15.0771C91.5957 14.3718 90.6519 13.8564 89.63 13.5696L88.9634 13.3789C87.7252 13.0289 86.4656 12.7601 85.1925 12.5742C84.8332 12.5219 84.5311 12.4644 84.1769 12.3808C84.0218 12.3441 83.8709 12.2915 83.7264 12.2241C83.6371 12.1839 83.5566 12.1265 83.4895 12.0552C83.4223 11.9838 83.3698 11.8999 83.335 11.8082C83.3002 11.7165 83.2837 11.6188 83.2865 11.5207C83.2893 11.4226 83.3114 11.326 83.3514 11.2365L83.38 11.179C83.4735 11.0062 83.6008 10.8542 83.7543 10.7321C83.9078 10.61 84.0843 10.5203 84.2733 10.4683C84.9712 10.2672 85.6118 10.2854 86.2967 10.5154C86.6122 10.6199 86.8846 10.8256 87.0719 11.1009C87.2593 11.3762 87.3511 11.7057 87.3332 12.0386H93.2134C93.2134 11.3502 93.0917 10.6673 92.854 10.0216C92.6247 9.35806 92.2064 8.77666 91.6509 8.34945C91.1783 7.96815 90.6482 7.66476 90.0806 7.45068C89.5308 7.23347 88.96 7.07412 88.3774 6.97518C86.9971 6.72743 85.5919 6.64847 84.1925 6.74003C83.3488 6.78706 82.6379 6.89157 81.8123 7.08491C80.703 7.34618 79.8071 7.77727 78.9113 8.4827C78.1748 9.04657 77.6242 9.81933 77.3306 10.7009C76.9748 11.7655 77.0136 12.9232 77.4399 13.9615C77.6621 14.5479 78.0056 15.0804 78.4477 15.5239C78.8898 15.9675 79.4206 16.3121 80.005 16.535C80.6222 16.7806 81.1613 16.9426 81.8123 17.0758C83.0962 17.3423 84.1821 17.5487 85.4738 17.7708M105.45 6.88634C104.791 6.78184 104.229 6.73742 103.562 6.73742C102.896 6.73742 102.336 6.78184 101.674 6.88634C99.8391 7.14905 98.1366 7.99624 96.8175 9.30308C95.3606 10.6644 94.4681 12.5263 94.3175 14.518C94.1975 15.7262 94.308 16.9463 94.6431 18.1131C95.1639 19.9994 96.1483 21.4573 97.6978 22.6461C98.661 23.4053 99.787 23.9295 100.987 24.1771C101.833 24.3674 102.698 24.4603 103.565 24.454C104.476 24.454 105.247 24.3757 106.14 24.1771C107.34 23.9294 108.466 23.4052 109.43 22.6461L105.851 18.7323C105.716 19.0338 105.523 19.3056 105.283 19.5322C105.043 19.7589 104.761 19.9358 104.453 20.053C104.145 20.1702 103.817 20.2253 103.488 20.2153C103.158 20.2052 102.834 20.13 102.534 19.9942C101.97 19.7493 101.52 19.298 101.276 18.7323C101.042 18.2206 100.883 17.6776 100.805 17.1202C100.627 15.9445 100.648 14.9256 100.875 13.7603C100.992 13.1568 101.195 12.663 101.531 12.1457C101.753 11.8083 102.054 11.5313 102.409 11.3397C102.763 11.1481 103.16 11.0477 103.562 11.0477C103.965 11.0477 104.361 11.1481 104.716 11.3397C105.071 11.5313 105.372 11.8083 105.594 12.1457C105.92 12.6332 106.143 13.1827 106.25 13.7603C106.476 14.9282 106.5 15.9471 106.323 17.1202C106.234 17.7081 106.094 18.1914 105.851 18.7323L109.43 22.6461C110.931 21.5272 112.008 19.9283 112.482 18.1131C112.823 16.8851 112.922 15.7878 112.807 14.518C112.657 12.5261 111.764 10.6641 110.307 9.30308C108.988 7.99578 107.286 7.14851 105.45 6.88634Z" fill="#5F5576"/>
<path d="M119.881 8.97051C120.654 8.28212 121.526 7.71407 122.467 7.28533C124.003 6.54547 125.761 6.41483 127.389 6.91955C128.265 7.16163 129.066 7.62274 129.715 8.25972C130.365 8.8967 130.844 9.68872 131.105 10.5616C131.375 11.3906 131.508 12.258 131.501 13.1299V23.9151H124.887V14.2168C124.887 13.8928 124.845 13.6159 124.751 13.3076C124.674 13.0398 124.537 12.7931 124.35 12.5863C124.164 12.3794 123.933 12.2178 123.676 12.1136C123.115 11.8712 122.485 11.8438 121.905 12.0364C121.325 12.229 120.836 12.6283 120.53 13.1586C120.267 13.5941 120.132 14.0947 120.139 14.6035V23.9151H113.733V7.20433H119.741L119.881 8.97051Z" fill="#5F5576"/>
<path d="M132.784 0.522461V4.9379H139.01V0.522461H132.784ZM132.784 7.20833V23.9191H139.01V7.20833H132.784ZM155.737 21.7505C154.55 23.0384 152.981 23.9079 151.263 24.23C150.055 24.4756 148.997 24.5278 147.771 24.3998C146.214 24.2601 144.729 23.6783 143.489 22.7225C142.462 21.9704 141.607 21.0065 140.982 19.8955C140.482 19.0451 140.148 18.107 139.997 17.1313C139.763 15.71 139.825 14.4611 140.198 13.0712C141.049 9.90984 143.416 7.67077 146.612 7.00454C148.435 6.6257 150.055 6.66489 151.859 7.13256C153.088 7.43566 154.217 8.05628 155.133 8.9327C155.719 9.46914 156.204 10.1073 156.565 10.8164C157.013 11.6484 157.218 12.5902 157.156 13.5336H151.461C151.408 13.1682 151.283 12.8169 151.093 12.5003C150.903 12.1837 150.653 11.9079 150.357 11.6891C149.979 11.3924 149.519 11.2205 149.04 11.1971C148.561 11.1737 148.087 11.2999 147.682 11.5584C147.117 11.8986 146.699 12.438 146.51 13.0712C146.023 14.5577 145.997 16.1577 146.437 17.6591C146.606 18.2951 146.952 18.8696 147.435 19.3155C147.702 19.5795 148.028 19.7762 148.385 19.8897C148.743 20.0033 149.122 20.0303 149.492 19.9687C149.959 19.9085 150.387 19.6778 150.695 19.3207C151.025 18.9623 151.243 18.5143 151.32 18.0327C151.383 17.68 151.417 17.3795 151.437 17.0216H157.44C157.511 17.8863 157.396 18.7562 157.102 19.5722C156.808 20.3882 156.342 21.1312 155.737 21.7505Z" fill="#5F5576"/>
</svg>
