<svg width="151" height="23" viewBox="0 0 151 23" fill="none" xmlns="http://www.w3.org/2000/svg">
<g clip-path="url(#clip0_256_467)">
<path d="M6.5675 6.23359C6.45737 5.79234 6.4849 5.3511 6.53997 5.1029C6.67764 4.41345 7.1457 3.66884 8.49482 3.66884C9.76134 3.66884 10.4772 4.44102 10.4772 5.62688C10.4772 6.01297 10.4772 6.95062 10.4772 6.95062H15.8186V5.43383C15.8461 0.745581 11.6336 0.000976562 8.60495 0.000976562C4.80539 0.000976562 1.69416 1.26956 1.11596 4.77196C0.950763 5.73719 0.92323 6.5921 1.17103 7.66764C2.10715 12.0525 9.7338 13.3211 10.8351 16.1065C11.0554 16.6305 10.9728 17.2923 10.8902 17.706C10.725 18.423 10.2294 19.1676 8.79768 19.1676C7.44856 19.1676 6.6501 18.3955 6.6501 17.2096V15.1413H0.868164V16.7959C0.868164 21.5945 4.64019 23.0286 8.66001 23.0286C12.5422 23.0286 15.7085 21.7048 16.2316 18.1197C16.4794 16.272 16.2867 15.0585 16.2041 14.6173C15.323 10.0669 7.17323 8.74318 6.5675 6.23359ZM76.3087 6.26117C76.2261 5.8475 76.2536 5.37867 76.2812 5.15805C76.4464 4.4686 76.8869 3.724 78.236 3.724C79.475 3.724 80.1908 4.49618 80.1908 5.65445C80.1908 6.04055 80.1908 6.9782 80.1908 6.9782H85.4772V5.48899C85.4772 0.855893 81.3472 0.138866 78.3461 0.138866C74.5741 0.138866 71.4904 1.37987 70.9122 4.85469C70.7746 5.79234 70.7195 6.64726 70.9673 7.7228C71.8759 12.0525 79.4199 13.3211 80.5212 16.0789C80.714 16.6029 80.6589 17.2648 80.5488 17.6509C80.3836 18.3679 79.9155 19.0849 78.4838 19.0849C77.1622 19.0849 76.3362 18.3127 76.3362 17.1545V15.0861H70.6369V16.7132C70.6369 21.4566 74.3538 22.8907 78.3461 22.8907C82.1732 22.8907 85.3395 21.5669 85.8351 18.0369C86.0829 16.1892 85.8902 15.0034 85.8076 14.5621C84.9541 10.0945 76.9144 8.77076 76.3087 6.26117ZM124.987 17.9818L119.949 0.690425H111.992V21.953H117.25L116.947 4.11009L122.371 21.953H129.998V0.690425H124.712L124.987 17.9818ZM23.8307 0.690425L19.8384 22.1736H25.6204L28.6215 2.28995L31.54 22.1736H37.2944L33.3572 0.690425H23.8307ZM56.2096 0.690425L53.5113 17.4854L50.8131 0.690425H42.0576L41.5895 22.1736H46.9585L47.0961 2.28995L50.7856 22.1736H56.2096L59.899 2.28995L60.0367 22.1736H65.4056L64.9375 0.690425H56.2096ZM106.044 0.690425H100.62V16.5753C100.62 16.8511 100.62 17.1545 100.565 17.4027C100.455 17.9266 100.015 18.9746 98.5003 18.9746C97.0135 18.9746 96.573 17.9542 96.4629 17.4027C96.4078 17.182 96.4078 16.8511 96.4078 16.5753V0.690425H90.9838V16.0789C90.9838 16.465 91.0113 17.2923 91.0389 17.4854C91.4243 21.4842 94.5631 22.8079 98.5003 22.8079C102.438 22.8079 105.604 21.5118 105.989 17.4854C106.017 17.2648 106.072 16.465 106.044 16.0789V0.690425ZM143.269 10.0945V13.2384H145.472V16.3547C145.472 16.6305 145.472 16.9338 145.417 17.182C145.334 17.7612 144.783 18.754 143.214 18.754C141.672 18.754 141.121 17.7612 141.039 17.182C141.011 16.9338 140.984 16.6305 140.984 16.3547V6.53695C140.984 6.17844 141.011 5.81992 141.094 5.51656C141.204 4.99258 141.672 3.9722 143.214 3.9722C144.866 3.9722 145.251 5.04774 145.362 5.51656C145.417 5.81992 145.417 6.3439 145.417 6.3439V7.52975H150.813V6.81273C150.813 6.81273 150.841 6.06812 150.786 5.37867C150.373 1.37987 147.041 0.111288 143.242 0.111288C139.442 0.111288 136.193 1.40745 135.725 5.40625C135.67 5.76477 135.615 6.42664 135.615 6.84031V15.8583C135.615 16.2444 135.615 16.5477 135.697 17.2648C136.055 21.1808 139.442 22.5597 143.242 22.5597C147.069 22.5597 150.428 21.1808 150.786 17.2648C150.841 16.5477 150.868 16.2444 150.868 15.8583V10.0945H143.269Z" fill="#5F5576"/>
</g>
<defs>
<clipPath id="clip0_256_467">
<rect width="150" height="23" fill="white" transform="translate(0.868164)"/>
</clipPath>
</defs>
</svg>
