<svg width="42" height="41" viewBox="0 0 42 41" fill="none" xmlns="http://www.w3.org/2000/svg">
<path d="M41.016 15.9044L39.8149 20.1946L32.7522 20.1822L38.4537 30.0575L35.5963 33.6888L27.1052 18.9819C26.3109 17.6061 27.3044 15.8863 28.8931 15.887L29.0463 15.8871L41.016 15.9044Z" fill="#5835AB"/>
<path d="M0.749023 25.8387L1.95009 21.5485L9.01285 21.5609L3.31135 11.6856L6.16874 8.05433L14.6598 22.7612C15.4541 24.137 14.4606 25.8568 12.8719 25.8561L12.7187 25.856L0.749023 25.8387Z" fill="#5835AB"/>
<path d="M15.0434 40.5912L11.9285 37.4059L15.4707 31.2956L4.06767 31.2956L2.35158 27.0054L19.3337 27.0054C20.9223 27.0054 21.9149 28.7257 21.12 30.1011L21.0433 30.2338L15.0434 40.5912Z" fill="#5835AB"/>
<path d="M26.7525 0.814697L29.8674 3.99996L26.3253 10.1103L37.7283 10.1103L39.4443 14.4005L22.4623 14.4005C20.8736 14.4005 19.8811 12.6802 20.6759 11.3047L20.7526 11.1721L26.7525 0.814697Z" fill="#5835AB"/>
<path d="M35.0429 35.7252L30.7269 36.8302L27.2063 30.7074L21.5048 40.5827L16.9313 39.9238L25.4223 25.2169C26.2166 23.8411 28.2028 23.8416 28.9965 25.2178L29.073 25.3505L35.0429 35.7252Z" fill="#5835AB"/>
<path d="M6.48493 5.70447L10.8009 4.59952L14.3215 10.7223L20.023 0.846967L24.5965 1.5059L16.1055 16.2128C15.3112 17.5886 13.325 17.5881 12.5313 16.2119L12.4548 16.0792L6.48493 5.70447Z" fill="#5835AB"/>
</svg>
