<svg width="127" height="31" viewBox="0 0 127 31" fill="none" xmlns="http://www.w3.org/2000/svg">
<g clip-path="url(#clip0_256_463)">
<path d="M73.9567 30.9094C76.3596 30.9094 78.3311 29.7853 79.7143 27.6942L79.9733 30.4769H84.6924V0.65625H79.5936V11.4259C78.3136 9.48956 76.4123 8.46979 74.1817 8.46979C69.2552 8.46979 65.8149 12.6368 65.8149 19.8455C65.8149 26.9499 69.1509 30.9094 73.9567 30.9094ZM105.334 29.0246V24.8588C103.743 25.9301 101.081 26.8807 98.5917 26.8807C94.8573 26.8807 93.4401 25.1178 93.2327 21.5217H105.54V18.8081C105.54 11.3064 102.239 8.46979 97.1394 8.46979C90.9153 8.46979 87.9603 13.224 87.9603 19.7587C87.9603 27.2605 91.6421 30.9094 98.1768 30.9094C101.427 30.9094 103.83 30.0443 105.334 29.0246ZM50.3602 14.9869C51.3108 13.8289 52.7982 12.8442 54.6479 12.8442C56.4448 12.8442 57.2583 13.6214 57.2583 15.2472V30.4769H62.3571V14.7279C62.3571 10.4413 60.6458 8.55653 56.48 8.55653C53.4371 8.55653 51.639 9.68062 50.6016 10.7004H50.3438L50.2219 8.90231H45.2414V30.4769H50.3414V14.9881L50.3602 14.9869ZM41.0943 15.7652C41.0943 10.5269 38.4312 8.55653 33.0206 8.55653C29.6671 8.55653 26.97 9.97483 25.4321 11.0802V15.5062C27.0567 14.1746 29.5463 12.6368 32.4333 12.6368C34.8714 12.6368 35.9943 13.5007 35.9943 15.8168V17.1824H35.182C27.3685 17.1824 23.8931 19.7072 23.8931 24.2188C23.8931 28.3846 26.555 30.7875 30.497 30.7875C33.5047 30.7875 34.7847 29.8029 35.7693 28.7655H35.9767C36.0119 29.3188 36.1842 30.0443 36.3577 30.4769H41.3358C41.1637 28.7247 41.0773 26.9652 41.0768 25.2045V15.7652H41.0943ZM121.031 30.4769H126.788L119.751 19.3614L125.837 8.90231H120.737L117.054 15.4195L112.94 8.90231H107.166L113.683 19.2407L106.907 30.4769H112.094L116.432 23.1814L121.031 30.4769ZM75.4617 12.4985C78.2104 12.4985 79.576 14.6939 79.576 19.6556C79.576 24.6689 78.1225 26.8643 75.2367 26.8643C72.4528 26.8643 71.0697 24.7193 71.0697 19.8279C71.0873 14.7291 72.5396 12.4985 75.4617 12.4985ZM97.0527 12.4985C99.5775 12.4985 100.355 14.6072 100.355 17.3043V17.7368H93.2327C93.3534 14.2965 94.5982 12.4973 97.0539 12.4973L97.0527 12.4985ZM35.9943 25.3241C35.3543 26.2747 34.1447 27.0354 32.3466 27.0354C30.2027 27.0354 29.1314 25.7906 29.1314 23.9058C29.1314 21.4173 30.8943 20.5535 35.2676 20.5535H35.9943V25.3241Z" fill="#5F5576"/>
<path d="M16.3384 25.4208V30.4856H11.1528V21.9454L1.36768 0.665039H6.77831L14.402 17.3131C15.8718 20.4943 16.3384 21.5996 16.3384 25.4208ZM26.0883 0.665039L19.727 15.0825H14.4547L20.816 0.665039H26.0883Z" fill="#5F5576"/>
</g>
<defs>
<clipPath id="clip0_256_463">
<rect width="125.824" height="31" fill="white" transform="translate(0.968262)"/>
</clipPath>
</defs>
</svg>
